<svg width="35" height="32" viewBox="0 0 35 32" fill="none" xmlns="http://www.w3.org/2000/svg">
<path d="M31.7188 16H3.28125C2.41101 16 1.57641 16.3457 0.961056 16.9611C0.345702 17.5764 0 18.411 0 19.2812C0 20.1515 0.345702 20.9861 0.961056 21.6014C1.57641 22.2168 2.41101 22.5625 3.28125 22.5625H31.7188C32.589 22.5625 33.4236 22.2168 34.0389 21.6014C34.6543 20.9861 35 20.1515 35 19.2812C35 18.411 34.6543 17.5764 34.0389 16.9611C33.4236 16.3457 32.589 16 31.7188 16ZM32.8125 24.75H2.1875C1.89742 24.75 1.61922 24.8652 1.4141 25.0704C1.20898 25.2755 1.09375 25.5537 1.09375 25.8438V26.9375C1.09375 28.0978 1.55469 29.2106 2.37516 30.0311C3.19563 30.8516 4.30843 31.3125 5.46875 31.3125H29.5312C30.6916 31.3125 31.8044 30.8516 32.6248 30.0311C33.4453 29.2106 33.9062 28.0978 33.9062 26.9375V25.8438C33.9062 25.5537 33.791 25.2755 33.5859 25.0704C33.3808 24.8652 33.1026 24.75 32.8125 24.75ZM4.00859 13.8125H30.9914C33.3546 13.8125 34.7252 10.8115 33.3717 8.62539C30.625 4.1875 24.5786 0.694336 17.5 0.6875C10.4221 0.694336 4.375 4.1875 1.62832 8.62471C0.273438 10.8108 1.64541 13.8125 4.00859 13.8125ZM26.25 6.15625C26.4663 6.15625 26.6778 6.2204 26.8577 6.34058C27.0375 6.46076 27.1777 6.63158 27.2605 6.83144C27.3433 7.0313 27.3649 7.25121 27.3227 7.46338C27.2805 7.67555 27.1764 7.87043 27.0234 8.0234C26.8704 8.17636 26.6755 8.28053 26.4634 8.32273C26.2512 8.36494 26.0313 8.34328 25.8314 8.26049C25.6316 8.17771 25.4608 8.03752 25.3406 7.85766C25.2204 7.67779 25.1562 7.46632 25.1562 7.25C25.1562 6.95992 25.2715 6.68172 25.4766 6.4766C25.6817 6.27148 25.9599 6.15625 26.25 6.15625ZM17.5 3.96875C17.7163 3.96875 17.9278 4.0329 18.1077 4.15308C18.2875 4.27326 18.4277 4.44408 18.5105 4.64394C18.5933 4.8438 18.6149 5.06371 18.5727 5.27588C18.5305 5.48805 18.4264 5.68293 18.2734 5.8359C18.1204 5.98886 17.9255 6.09303 17.7134 6.13523C17.5012 6.17744 17.2813 6.15578 17.0814 6.07299C16.8816 5.99021 16.7108 5.85002 16.5906 5.67016C16.4704 5.49029 16.4062 5.27882 16.4062 5.0625C16.4062 4.77242 16.5215 4.49422 16.7266 4.2891C16.9317 4.08398 17.2099 3.96875 17.5 3.96875ZM8.75 6.15625C8.96632 6.15625 9.17779 6.2204 9.35766 6.34058C9.53752 6.46076 9.67771 6.63158 9.76049 6.83144C9.84328 7.0313 9.86494 7.25121 9.82273 7.46338C9.78053 7.67555 9.67636 7.87043 9.5234 8.0234C9.37043 8.17636 9.17555 8.28053 8.96338 8.32273C8.75121 8.36494 8.5313 8.34328 8.33144 8.26049C8.13158 8.17771 7.96076 8.03752 7.84058 7.85766C7.7204 7.67779 7.65625 7.46632 7.65625 7.25C7.65625 6.95992 7.77148 6.68172 7.9766 6.4766C8.18172 6.27148 8.45992 6.15625 8.75 6.15625Z" fill="white"/>
</svg>
