<svg width="25" height="36" viewBox="0 0 25 36" fill="none" xmlns="http://www.w3.org/2000/svg">
<path d="M12.5319 0.5C7.07552 0.5 3.54141 2.73556 0.766772 6.72248C0.263442 7.44572 0.418617 8.43734 1.12074 8.96973L4.06962 11.2057C4.77872 11.7433 5.78763 11.6176 6.34278 10.9221C8.05511 8.77695 9.3253 7.54184 12 7.54184C14.103 7.54184 16.7042 8.89528 16.7042 10.9346C16.7042 12.4762 15.4316 13.268 13.3551 14.4321C10.9336 15.7897 7.72917 17.4793 7.72917 21.7059V22.375C7.72917 23.2811 8.4637 24.0156 9.3698 24.0156H14.3239C15.23 24.0156 15.9645 23.2811 15.9645 22.375V21.9804C15.9645 19.0505 24.5277 18.9285 24.5277 11C24.5278 5.02922 18.3343 0.5 12.5319 0.5ZM11.8469 26.0294C9.23581 26.0294 7.11155 28.1537 7.11155 30.7647C7.11155 33.3757 9.23581 35.5 11.8469 35.5C14.4579 35.5 16.5822 33.3757 16.5822 30.7647C16.5822 28.1536 14.4579 26.0294 11.8469 26.0294Z" fill="white"/>
</svg>
