<svg width="35" height="28" viewBox="0 0 35 28" fill="none" xmlns="http://www.w3.org/2000/svg">
<path d="M17.036 7.45231L5.83379 16.6786V26.6364C5.83379 26.8943 5.93622 27.1415 6.11853 27.3238C6.30084 27.5061 6.54811 27.6086 6.80594 27.6086L13.6146 27.5909C13.8716 27.5897 14.1176 27.4867 14.2989 27.3045C14.4802 27.1223 14.5819 26.8758 14.5819 26.6188V20.8035C14.5819 20.5457 14.6843 20.2984 14.8666 20.1161C15.049 19.9338 15.2962 19.8314 15.5541 19.8314H19.4426C19.7005 19.8314 19.9477 19.9338 20.1301 20.1161C20.3124 20.2984 20.4148 20.5457 20.4148 20.8035V26.6145C20.4144 26.7425 20.4392 26.8692 20.4879 26.9875C20.5366 27.1058 20.6081 27.2133 20.6984 27.3039C20.7888 27.3945 20.8961 27.4664 21.0142 27.5154C21.1324 27.5645 21.259 27.5897 21.3869 27.5897L28.1932 27.6086C28.451 27.6086 28.6983 27.5061 28.8806 27.3238C29.0629 27.1415 29.1653 26.8943 29.1653 26.6364V16.6719L17.9656 7.45231C17.8339 7.34618 17.6699 7.2883 17.5008 7.2883C17.3317 7.2883 17.1676 7.34618 17.036 7.45231ZM34.7309 13.7233L29.6514 9.53635V1.12059C29.6514 0.927218 29.5746 0.741766 29.4378 0.605031C29.3011 0.468296 29.1157 0.391479 28.9223 0.391479H25.5198C25.3264 0.391479 25.141 0.468296 25.0042 0.605031C24.8675 0.741766 24.7907 0.927218 24.7907 1.12059V5.53232L19.3509 1.05679C18.8289 0.627213 18.1738 0.392338 17.4977 0.392338C16.8217 0.392338 16.1666 0.627213 15.6446 1.05679L0.264606 13.7233C0.190776 13.7843 0.129693 13.8593 0.0848477 13.9439C0.0400026 14.0285 0.0122738 14.1212 0.00324585 14.2165C-0.00578212 14.3119 0.00406762 14.4081 0.0322323 14.4996C0.0603969 14.5912 0.106325 14.6763 0.167391 14.7501L1.71675 16.6336C1.77765 16.7077 1.85256 16.769 1.93718 16.8141C2.02181 16.8591 2.11449 16.8871 2.20993 16.8963C2.30536 16.9055 2.40167 16.8957 2.49335 16.8677C2.58503 16.8396 2.67027 16.7937 2.74419 16.7327L17.036 4.96118C17.1676 4.85505 17.3317 4.79717 17.5008 4.79717C17.6699 4.79717 17.8339 4.85505 17.9656 4.96118L32.258 16.7327C32.3318 16.7937 32.4169 16.8397 32.5084 16.8678C32.6 16.896 32.6962 16.9058 32.7915 16.8968C32.8869 16.8878 32.9795 16.8601 33.0642 16.8152C33.1488 16.7704 33.2238 16.7093 33.2848 16.6355L34.8342 14.7519C34.8952 14.6777 34.9409 14.5922 34.9687 14.5002C34.9966 14.4083 35.006 14.3117 34.9964 14.2161C34.9868 14.1205 34.9584 14.0278 34.9128 13.9432C34.8672 13.8586 34.8054 13.7839 34.7309 13.7233Z" fill="white"/>
</svg>
