<svg width="35" height="28" viewBox="0 0 35 28" fill="none" xmlns="http://www.w3.org/2000/svg">
<path d="M6.5625 26.8501H12.3047C12.7559 26.8501 13.125 26.481 13.125 26.0298V23.2954C13.125 22.8442 12.7559 22.4751 12.3047 22.4751H6.5625C5.35254 22.4751 4.375 21.4976 4.375 20.2876V7.1626C4.375 5.95264 5.35254 4.9751 6.5625 4.9751H12.3047C12.7559 4.9751 13.125 4.60596 13.125 4.15479V1.42041C13.125 0.969238 12.7559 0.600098 12.3047 0.600098H6.5625C2.93945 0.600098 0 3.53955 0 7.1626V20.2876C0 23.9106 2.93945 26.8501 6.5625 26.8501ZM9.77539 13.1099L21.2598 1.62549C22.2852 0.600098 24.0625 1.31787 24.0625 2.7876V9.3501H33.3594C34.2686 9.3501 35 10.0815 35 10.9907V17.5532C35 18.4624 34.2686 19.1938 33.3594 19.1938H24.0625V25.7563C24.0625 27.2261 22.2852 27.9438 21.2598 26.9185L9.77539 15.4341C9.13965 14.7915 9.13965 13.7524 9.77539 13.1099Z" fill="white"/>
</svg>
