<svg width="35" height="36" viewBox="0 0 35 36" fill="none" xmlns="http://www.w3.org/2000/svg">
<path d="M17.5 0.5C7.83266 0.5 0 8.33266 0 18C0 27.6673 7.83266 35.5 17.5 35.5C27.1673 35.5 35 27.6673 35 18C35 8.33266 27.1673 0.5 17.5 0.5ZM21.5292 25.2046L15.3054 20.6815C15.0867 20.5192 14.9597 20.2651 14.9597 19.997V8.12097C14.9597 7.65524 15.3407 7.27419 15.8065 7.27419H19.1935C19.6593 7.27419 20.0403 7.65524 20.0403 8.12097V17.8377L24.5212 21.0978C24.9022 21.373 24.9798 21.9022 24.7046 22.2833L22.7147 25.0212C22.4395 25.3952 21.9103 25.4798 21.5292 25.2046Z" fill="white"/>
</svg>
