<svg width="35" height="38" viewBox="0 0 35 38" fill="none" xmlns="http://www.w3.org/2000/svg">
<path d="M34.553 23.3932L31.4128 21.5799C31.7298 19.8698 31.7298 18.1155 31.4128 16.4053L34.553 14.592C34.9141 14.3856 35.0763 13.9581 34.9584 13.5601C34.1402 10.9359 32.747 8.56239 30.9263 6.5869C30.6462 6.28469 30.1892 6.21097 29.8354 6.41737L26.6953 8.23068C25.3758 7.09552 23.8573 6.21834 22.2136 5.64339V2.02413C22.2136 1.61134 21.9261 1.25016 21.5207 1.1617C18.8154 0.557263 16.0439 0.586748 13.4713 1.1617C13.0659 1.25016 12.7784 1.61134 12.7784 2.02413V5.65076C11.142 6.23309 9.62355 7.11026 8.29674 8.23805L5.16398 6.42474C4.80279 6.21834 4.35315 6.28469 4.07304 6.59428C2.25235 8.56239 0.859196 10.9359 0.0409927 13.5674C-0.0843177 13.9655 0.0852199 14.393 0.446409 14.5994L3.58654 16.4127C3.26958 18.1228 3.26958 19.8772 3.58654 21.5873L0.446409 23.4006C0.0852199 23.607 -0.0769465 24.0345 0.0409927 24.4326C0.859196 27.0567 2.25235 29.4303 4.07304 31.4057C4.35315 31.708 7.95029 29.9684 8.30411 29.762C9.62355 30.8971 11.142 31.7743 12.7858 32.3492V35.9759C12.7858 36.3887 13.0733 36.7499 13.4787 36.8383C16.1839 37.4427 18.9555 37.4133 21.528 36.8383C21.9335 36.7499 22.2209 36.3887 22.2209 35.9759V32.3492C23.8573 31.7669 25.3758 30.8898 26.7026 29.762L29.8428 31.5753C30.2039 31.7817 30.6536 31.7153 30.9337 31.4057C32.7544 29.4376 34.1475 27.0641 34.9657 24.4326C35.0763 24.0272 34.9141 23.5996 34.553 23.3932ZM17.496 24.8896C14.2453 24.8896 11.599 22.2433 11.599 18.9926C11.599 15.7419 14.2453 13.0957 17.496 13.0957C20.7467 13.0957 23.393 15.7419 23.393 18.9926C23.393 22.2433 20.7467 24.8896 17.496 24.8896Z" fill="white"/>
</svg>
